<svg width="22" height="23" viewBox="0 0 22 23" fill="none" xmlns="http://www.w3.org/2000/svg">
<path d="M0 3C0 1.49609 1.20312 0.25 2.75 0.25H19.25C20.7539 0.25 22 1.49609 22 3V15.375C22 16.9219 20.7539 18.125 19.25 18.125H13.2773L7.94922 22.1211C7.73438 22.293 7.47656 22.293 7.21875 22.207C7.00391 22.0781 6.875 21.8633 6.875 21.5625V18.125H2.75C1.20312 18.125 0 16.9219 0 15.375V3ZM6.53125 6.4375C5.92969 6.4375 5.5 6.91016 5.5 7.46875C5.5 8.07031 5.92969 8.5 6.53125 8.5H15.4688C16.0273 8.5 16.5 8.07031 16.5 7.46875C16.5 6.91016 16.0273 6.4375 15.4688 6.4375H6.53125ZM6.53125 10.5625C5.92969 10.5625 5.5 11.0352 5.5 11.5938C5.5 12.1953 5.92969 12.625 6.53125 12.625H11.3438C11.9023 12.625 12.375 12.1953 12.375 11.5938C12.375 11.0352 11.9023 10.5625 11.3438 10.5625H6.53125Z" fill="#3047EC"/>
</svg>
