<svg width="23" height="24" viewBox="0 0 23 24" fill="none" xmlns="http://www.w3.org/2000/svg">
<path d="M8.625 19.5625V21.7188L13.0273 18.4395C13.252 18.2598 13.5664 18.125 13.8809 18.125H20.125C20.8887 18.125 21.5625 17.4961 21.5625 16.6875V3.75C21.5625 2.98633 20.8887 2.3125 20.125 2.3125H2.875C2.06641 2.3125 1.4375 2.98633 1.4375 3.75V16.6875C1.4375 17.4961 2.06641 18.125 2.875 18.125H7.1875C7.95117 18.125 8.625 18.7988 8.625 19.5625ZM2.875 0.875H20.125C21.6973 0.875 23 2.17773 23 3.75V16.6875C23 18.3047 21.6973 19.5625 20.125 19.5625H13.8809L8.31055 23.7402C8.08594 23.9199 7.81641 23.9199 7.54688 23.8301C7.32227 23.6953 7.1875 23.4707 7.1875 23.1562V21V19.5625H5.75H2.875C1.25781 19.5625 0 18.3047 0 16.6875V3.75C0 2.17773 1.25781 0.875 2.875 0.875ZM6.46875 7.34375H16.5312C16.8906 7.34375 17.25 7.70312 17.25 8.0625C17.25 8.4668 16.8906 8.78125 16.5312 8.78125H6.46875C6.06445 8.78125 5.75 8.4668 5.75 8.0625C5.75 7.70312 6.06445 7.34375 6.46875 7.34375ZM6.46875 11.6562H12.2188C12.5781 11.6562 12.9375 12.0156 12.9375 12.375C12.9375 12.7793 12.5781 13.0938 12.2188 13.0938H6.46875C6.06445 13.0938 5.75 12.7793 5.75 12.375C5.75 12.0156 6.06445 11.6562 6.46875 11.6562Z" fill="black"/>
</svg>
