<svg width="6" height="8" viewBox="0 0 6 8" fill="none" xmlns="http://www.w3.org/2000/svg">
<path fill-rule="evenodd" clip-rule="evenodd" d="M0.713992 7.78194C0.576682 7.64128 0.499817 7.45251 0.499817 7.25594C0.499817 7.05937 0.576682 6.8706 0.713992 6.72994L3.39999 3.99994L0.714991 1.26994C0.577681 1.12928 0.500817 0.940507 0.500817 0.74394C0.500816 0.547373 0.577681 0.358598 0.714991 0.21794C1.00099 -0.0720597 1.46499 -0.0720597 1.75099 0.21794L4.95299 3.47394C5.0903 3.6146 5.16717 3.80337 5.16717 3.99994C5.16717 4.19651 5.0903 4.38528 4.95299 4.52594L1.74999 7.78194C1.68255 7.851 1.60199 7.90588 1.51303 7.94335C1.42407 7.98082 1.32852 8.00012 1.23199 8.00012C1.13546 8.00012 1.03991 7.98082 0.950954 7.94335C0.861997 7.90588 0.78143 7.851 0.713992 7.78194Z" fill="#0057FF"/>
</svg>
