<svg width="12" height="7" viewBox="0 0 12 7" fill="none" xmlns="http://www.w3.org/2000/svg">
<path fill-rule="evenodd" clip-rule="evenodd" d="M0.326998 0.321018C0.537985 0.115053 0.821147 -0.000244141 1.116 -0.000244141C1.41085 -0.000244141 1.69401 0.115053 1.905 0.321018L6 4.35002L10.095 0.322518C10.306 0.116553 10.5891 0.00125575 10.884 0.00125575C11.1788 0.00125575 11.462 0.116553 11.673 0.322518C12.108 0.751518 12.108 1.44752 11.673 1.87652L6.789 6.67952C6.57801 6.88548 6.29485 7.00078 6 7.00078C5.70515 7.00078 5.42198 6.88548 5.211 6.67952L0.326998 1.87502C0.223405 1.77386 0.141086 1.65301 0.0848826 1.51957C0.028679 1.38614 -0.000274658 1.24281 -0.000274658 1.09802C-0.000274658 0.953227 0.028679 0.809899 0.0848826 0.676462C0.141086 0.543025 0.223405 0.422175 0.326998 0.321018Z" fill="white"/>
</svg>
