<svg width="24" height="23" viewBox="0 0 24 23" fill="none" xmlns="http://www.w3.org/2000/svg">
<path d="M12 22.25C8.04688 22.25 4.4375 20.1875 2.46094 16.75C0.484375 13.3555 0.484375 9.1875 2.46094 5.75C4.4375 2.35547 8.04688 0.25 12 0.25C15.9102 0.25 19.5195 2.35547 21.4961 5.75C23.4727 9.1875 23.4727 13.3555 21.4961 16.75C19.5195 20.1875 15.9102 22.25 12 22.25ZM8.26172 7.38281V7.42578C8.08984 7.94141 8.34766 8.54297 8.90625 8.75781C9.42188 8.92969 10.0234 8.67188 10.1953 8.11328L10.2383 8.07031C10.2812 7.94141 10.4102 7.85547 10.5391 7.85547H13.0312C13.418 7.85547 13.7188 8.11328 13.7188 8.5C13.7188 8.71484 13.5898 8.92969 13.375 9.05859L11.4844 10.1328C11.1406 10.3047 10.9688 10.6484 10.9688 11.0352V11.5938C10.9688 12.1953 11.3984 12.625 12 12.625C12.5586 12.625 12.9883 12.1953 13.0312 11.6367L14.4062 10.8203C15.2227 10.3477 15.7812 9.44531 15.7812 8.5C15.7812 6.99609 14.5352 5.75 13.0312 5.75H10.5391C9.50781 5.75 8.60547 6.39453 8.26172 7.38281ZM10.625 15.375C10.625 16.1484 11.2266 16.75 12 16.75C12.7305 16.75 13.375 16.1484 13.375 15.375C13.375 14.6445 12.7305 14 12 14C11.2266 14 10.625 14.6445 10.625 15.375Z" fill="#3047EC"/>
</svg>
