<svg width="27" height="24" viewBox="0 0 27 24" fill="none" xmlns="http://www.w3.org/2000/svg">
<path d="M26.3301 12.375C26.3301 13.1836 25.6562 13.8125 24.8926 13.8125H23.4551L23.5 21C23.5 21.1348 23.5 21.2695 23.5 21.3594V22.0781C23.5 23.1113 22.6914 23.875 21.7031 23.875H20.9844C20.8945 23.875 20.8496 23.875 20.8047 23.875C20.7598 23.875 20.6699 23.875 20.625 23.875H19.1875H18.1094C17.0762 23.875 16.3125 23.1113 16.3125 22.0781V21V18.125C16.3125 17.3613 15.6387 16.6875 14.875 16.6875H12C11.1914 16.6875 10.5625 17.3613 10.5625 18.125V21V22.0781C10.5625 23.1113 9.75391 23.875 8.76562 23.875H7.6875H6.25C6.16016 23.875 6.11523 23.875 6.02539 23.875C5.98047 23.875 5.93555 23.875 5.89062 23.875H5.17188C4.13867 23.875 3.375 23.1113 3.375 22.0781V17.0469C3.375 17.0469 3.375 17.002 3.375 16.957V13.8125H1.9375C1.12891 13.8125 0.5 13.1836 0.5 12.375C0.5 11.9707 0.634766 11.6113 0.949219 11.2969L12.4492 1.23438C12.7637 0.919922 13.123 0.875 13.4375 0.875C13.752 0.875 14.1113 0.964844 14.3809 1.18945L25.8359 11.2969C26.1953 11.6113 26.375 11.9707 26.3301 12.375Z" fill="#3047EC"/>
</svg>
