<svg width="26" height="23" viewBox="0 0 26 23" fill="none" xmlns="http://www.w3.org/2000/svg">
<path d="M13.3047 0.421875L24.9922 10.7344C25.293 10.9922 25.293 11.4219 25.0781 11.7227C24.8203 12.0234 24.3906 12.0234 24.0898 11.7656L22.5 10.3477V18.8125C22.5 20.7461 20.9531 22.25 19.0625 22.25H6.6875C4.75391 22.25 3.25 20.7461 3.25 18.8125V10.3477L1.61719 11.7656C1.35938 12.0234 0.886719 12.0234 0.671875 11.7227C0.414062 11.4219 0.414062 10.9922 0.714844 10.7344L12.4023 0.421875C12.6602 0.207031 13.0469 0.207031 13.3047 0.421875ZM4.625 18.8125C4.625 19.9727 5.52734 20.875 6.6875 20.875H9.4375V14C9.4375 13.2695 10.0391 12.625 10.8125 12.625H14.9375C15.668 12.625 16.3125 13.2695 16.3125 14V20.875H19.0625C20.1797 20.875 21.125 19.9727 21.125 18.8125V9.14453L12.875 1.88281L4.625 9.14453V18.8125ZM10.8125 20.875H14.9375V14H10.8125V20.875Z" fill="black"/>
</svg>
