<svg width="14" height="14" viewBox="0 0 14 14" fill="none" xmlns="http://www.w3.org/2000/svg">
<path fill-rule="evenodd" clip-rule="evenodd" d="M3.06299 13.605L12.419 8.20304C13.419 7.62604 13.419 6.18304 12.419 5.60504L3.06299 0.203037C2.83489 0.0713438 2.57613 0.00203303 2.31275 0.00207521C2.04936 0.0021174 1.79063 0.0715111 1.56257 0.203277C1.33451 0.335044 1.14517 0.524537 1.01359 0.7527C0.882006 0.980863 0.81282 1.23965 0.812989 1.50304V12.306C0.81282 12.5694 0.882006 12.8282 1.01359 13.0564C1.14517 13.2845 1.33451 13.474 1.56257 13.6058C1.79063 13.7376 2.04936 13.807 2.31275 13.807C2.57613 13.807 2.83489 13.7377 3.06299 13.606V13.605ZM5.00999 7.38704L0.812989 8.51204V5.29704L5.00999 6.42004C5.50399 6.55304 5.50399 7.25404 5.00999 7.38604V7.38704Z" fill="#0057FF"/>
</svg>
